<?xml version="1.0" encoding="UTF-8" standalone="no"?>
<!-- Created with Inkscape (http://www.inkscape.org/) -->

<svg
   xmlns:dc="http://purl.org/dc/elements/1.1/"
   xmlns:cc="http://creativecommons.org/ns#"
   xmlns:rdf="http://www.w3.org/1999/02/22-rdf-syntax-ns#"
   xmlns:svg="http://www.w3.org/2000/svg"
   xmlns="http://www.w3.org/2000/svg"
   xmlns:sodipodi="http://sodipodi.sourceforge.net/DTD/sodipodi-0.dtd"
   xmlns:inkscape="http://www.inkscape.org/namespaces/inkscape"
   width="210mm"
   height="297mm"
   viewBox="0 0 210 297"
   version="1.1"
   id="svg8"
   inkscape:version="0.92.3 (2405546, 2018-03-11)"
   sodipodi:docname="logo1.svg">
  <defs
     id="defs2">
    <inkscape:perspective
       sodipodi:type="inkscape:persp3d"
       inkscape:vp_x="0 : 148.5 : 1"
       inkscape:vp_y="0 : 1000 : 0"
       inkscape:vp_z="210 : 148.5 : 1"
       inkscape:persp3d-origin="105 : 99 : 1"
       id="perspective86" />
  </defs>
  <sodipodi:namedview
     id="base"
     pagecolor="#ffffff"
     bordercolor="#666666"
     borderopacity="1.0"
     inkscape:pageopacity="0.0"
     inkscape:pageshadow="2"
     inkscape:zoom="0.35"
     inkscape:cx="-37.142857"
     inkscape:cy="560"
     inkscape:document-units="mm"
     inkscape:current-layer="layer1"
     showgrid="false"
     inkscape:window-width="1366"
     inkscape:window-height="705"
     inkscape:window-x="-8"
     inkscape:window-y="-8"
     inkscape:window-maximized="1" />
  <metadata
     id="metadata5">
    <rdf:RDF>
      <cc:Work
         rdf:about="">
        <dc:format>image/svg+xml</dc:format>
        <dc:type
           rdf:resource="http://purl.org/dc/dcmitype/StillImage" />
        <dc:title></dc:title>
      </cc:Work>
    </rdf:RDF>
  </metadata>
  <g
     inkscape:label="Capa 1"
     inkscape:groupmode="layer"
     id="layer1">
    <g
       sodipodi:type="inkscape:box3d"
       id="g88"
       style="fill:#008080"
       inkscape:perspectiveID="#perspective86"
       inkscape:corner0="5.9448819 : 0.016261642 : 0 : 1"
       inkscape:corner7="-0.40130327 : -0.010564934 : 0.25 : 1">
      <path
         sodipodi:type="inkscape:box3dside"
         id="path90"
         style="fill:#008080;fill-rule:evenodd;stroke:none;stroke-linejoin:round"
         inkscape:box3dsidetype="6"
         d="m 15.119048,153.28603 v 3.86278 l 6.771513,-0.30052 v -3.72856 z"
         points="15.119048,157.14881 21.890561,156.84829 21.890561,153.11973 15.119048,153.28603 " />
      <path
         sodipodi:type="inkscape:box3dside"
         id="path98"
         style="fill:#008080;fill-rule:evenodd;stroke:none;stroke-linejoin:round"
         inkscape:box3dsidetype="13"
         d="m 15.119048,157.14881 160.261902,91.67733 10.19771,-29.553 -163.688099,-62.42485 z"
         points="175.38095,248.82614 185.57866,219.27314 21.890561,156.84829 15.119048,157.14881 " />
      <path
         sodipodi:type="inkscape:box3dside"
         id="path100"
         style="fill:#008080;fill-rule:evenodd;stroke:none;stroke-linejoin:round"
         inkscape:box3dsidetype="11"
         d="M 21.890561,153.11973 185.57866,187.664 v 31.60914 L 21.890561,156.84829 Z"
         points="185.57866,187.664 185.57866,219.27314 21.890561,156.84829 21.890561,153.11973 " />
      <path
         sodipodi:type="inkscape:box3dside"
         id="path92"
         style="fill:#008080;fill-rule:evenodd;stroke:none;stroke-linejoin:round"
         inkscape:box3dsidetype="5"
         d="M 15.119048,153.28603 175.38095,204.01786 185.57866,187.664 21.890561,153.11973 Z"
         points="175.38095,204.01786 185.57866,187.664 21.890561,153.11973 15.119048,153.28603 " />
      <path
         sodipodi:type="inkscape:box3dside"
         id="path96"
         style="fill:#008080;fill-rule:evenodd;stroke:none;stroke-linejoin:round"
         inkscape:box3dsidetype="14"
         d="m 175.38095,204.01786 v 44.80828 l 10.19771,-29.553 V 187.664 Z"
         points="175.38095,248.82614 185.57866,219.27314 185.57866,187.664 175.38095,204.01786 " />
      <path
         sodipodi:type="inkscape:box3dside"
         id="path94"
         style="fill:#008080;fill-rule:evenodd;stroke:none;stroke-linejoin:round"
         inkscape:box3dsidetype="3"
         d="m 15.119048,153.28603 160.261902,50.73183 v 44.80828 L 15.119048,157.14881 Z"
         points="175.38095,204.01786 175.38095,248.82614 15.119048,157.14881 15.119048,153.28603 " />
    </g>
    <path
       style="fill:#a02c2c;stroke-width:0.26458332"
       id="path112"
       d="m 36.585871,89.38734 c -1.714476,-0.116813 -3.390807,-0.03704 -5.080309,0.245126 -0.720881,0.220327 -1.334463,0.528931 -1.956753,0.934366 -0.177091,0.115379 -0.729017,0.428132 -0.545761,0.322815 9.19313,-5.283335 11.834894,-7.363526 8.619241,-4.871707 -0.875689,0.645592 -1.851708,1.12898 -2.553682,1.975943 -0.67587,0.881174 -1.48164,1.672368 -2.072327,2.613409 -0.685181,1.081317 -1.051716,2.295099 -1.528795,3.469031 -0.42342,1.133081 -0.933868,2.217547 -1.309512,3.368633 -0.555094,1.320091 -0.723239,2.733744 -0.950749,4.132494 -0.359619,1.27416 -0.589087,2.56668 -0.708432,3.88367 -0.185777,1.20748 0.169727,2.22839 0.750043,3.26013 0.642046,1.08199 1.636104,1.46487 2.656816,2.05225 1.169898,0.52884 2.351043,0.99985 3.612002,1.26377 1.369034,0.0834 2.648095,0.56558 3.99239,0.79706 1.245032,0.23423 2.425518,0.6606 3.694018,0.82755 1.338439,0.058 2.662496,0.3489 3.910621,0.83529 1.323202,0.33655 2.589093,0.8266 3.899259,1.20423 1.333334,0.4752 2.540461,1.10475 3.588327,2.05923 0.969762,1.05193 1.828528,2.1608 2.459244,3.44875 0.425088,1.31466 0.902647,2.61974 1.22178,3.96689 0.29165,1.43352 0.32362,2.90046 0.351575,4.35781 0.134089,1.54751 -0.08812,2.96873 -0.734737,4.37276 -3.059242,4.09619 -8.165645,6.49782 -13.0351,7.95065 -1.440831,0.68782 -3.004518,0.94648 -4.578382,1.0945 -1.527505,0.10831 -3.060046,0.0991 -4.590436,0.0979 -1.555969,0.11135 -3.056715,-0.31869 -4.585787,-0.53421 -1.548371,-0.36205 -3.038023,-0.90815 -4.573019,-1.31345 -1.446939,-0.41375 -2.974557,-0.24316 -4.425357,-0.57966 -1.277279,-0.29012 -2.537933,-0.47223 -3.785104,-0.87019 -0.780425,-0.20006 -0.385861,-0.11222 -1.183824,-0.26291 0,0 9.179991,-6.37226 9.179991,-6.37226 v 0 c 0.840079,0.20738 0.426969,0.0967 1.239624,0.3309 1.211175,0.34548 2.471351,0.47223 3.694874,0.77198 1.496886,0.17145 3.015618,0.22889 4.465164,0.68704 1.486191,0.44553 2.966474,0.92652 4.498157,1.19616 1.489901,0.24064 2.969853,0.50672 4.488384,0.39464 1.50418,-0.009 3.013609,-0.0144 4.508137,-0.20588 1.533105,-0.2415 3.000169,-0.68223 4.42748,-1.29624 3.483414,-1.52845 8.421497,-4.92558 -7.568719,4.50782 -0.705855,0.41642 2.239333,-1.00345 1.602365,-1.08026 0.923001,-1.11518 1.153662,-2.38702 1.032853,-3.8127 -0.01841,-1.38406 -0.03113,-2.77651 -0.265863,-4.14456 -0.270092,-1.27603 -0.73731,-2.49537 -1.086591,-3.74874 -0.550072,-1.1523 -1.352921,-2.1295 -2.23551,-3.04713 -0.992272,-0.79017 -2.128991,-1.31425 -3.343174,-1.67964 -1.294318,-0.4371 -2.600577,-0.81666 -3.904594,-1.22345 -1.254995,-0.3385 -2.514092,-0.58347 -3.811868,-0.68709 -1.252527,-0.24031 -2.452664,-0.67346 -3.716359,-0.85835 -1.334703,-0.29668 -2.653945,-0.64456 -4.007845,-0.84865 -1.311733,-0.36767 -2.594729,-0.85803 -3.802734,-1.49016 -1.209122,-0.63783 -2.208615,-1.41008 -2.969169,-2.57176 -0.702698,-1.18904 -1.195172,-2.44772 -1.045935,-3.85906 0.07926,-1.36071 0.199372,-2.72688 0.626831,-4.0304 0.420208,-1.38133 0.308806,-2.89581 0.893014,-4.24768 0.228001,-0.59549 0.337056,-1.2132 0.571839,-1.80475 0.07096,-0.17879 0.162093,-0.34892 0.24314,-0.523375 0.0932,-0.15518 0.208398,-0.299114 0.279584,-0.465542 0.08379,-0.19589 0.121107,-0.408543 0.18166,-0.612815 0.148426,-0.371964 0.35351,-0.720595 0.488739,-1.09756 0.299816,-0.835763 0.420808,-1.739265 1.018291,-2.449648 0.120085,-0.316761 0.335323,-0.958125 0.548608,-1.242988 0.419373,-0.560113 1.069047,-0.974109 1.373168,-1.63507 0.9959,-1.048829 -0.286675,0.359455 0.664737,-0.894963 0.438562,-0.578239 1.203844,-0.941449 1.813074,-1.293464 3.963193,-2.884384 8.279011,-6.10902 13.175435,-7.17724 1.750374,-0.206084 3.505562,-0.136142 5.264732,-0.185367 0,0 -9.07877,6.596112 -9.07877,6.596112 z"
       inkscape:connector-curvature="0" />
    <path
       style="fill:#a02c2c;stroke-width:0.26458332"
       id="path126"
       d="m 85.069928,78.881318 c -0.301721,1.978708 -0.690449,3.928012 -1.267757,5.845509 -0.537601,1.579747 -0.720751,3.240225 -1.084064,4.861065 -0.440515,1.734238 -0.862174,3.464986 -1.223885,5.218258 -0.501074,2.564259 -1.00374,5.132088 -1.353717,7.72238 -0.209683,2.59423 -0.425215,5.18251 -0.705924,7.77065 -0.234935,2.36633 -0.642001,4.71425 -1.124316,7.04182 -0.400505,1.77312 -0.614732,3.57546 -0.721696,5.38753 0.02622,1.38227 -0.349255,2.71577 -0.565152,4.06928 -0.09627,1.28765 -0.512879,2.51206 -0.742429,3.77639 -0.142335,1.3492 -0.239712,2.6832 -0.534239,4.00997 -0.164703,1.25911 -0.535405,2.465 -0.845063,3.69116 0,0 -10.063718,4.85723 -10.063718,4.85723 v 0 c 0.235723,-1.2525 0.745741,-2.41269 0.846156,-3.68932 0.279598,-1.31719 0.593521,-2.58835 0.570338,-3.9512 0.163521,-1.28368 0.56769,-2.49502 0.751026,-3.76225 0.160006,-1.35012 0.572174,-2.65038 0.638765,-4.00255 0.09458,-1.87743 0.293192,-3.74778 0.724188,-5.58152 0.506296,-2.29906 0.946333,-4.61449 1.192503,-6.95801 0.318532,-2.5951 0.550188,-5.19026 0.737323,-7.79761 0.300775,-2.60966 0.841711,-5.17276 1.220972,-7.770166 0.404567,-1.731555 0.636149,-3.502102 1.166165,-5.203547 0.391869,-1.649709 0.596879,-3.330766 1.091321,-4.956882 0.594617,-1.847799 1.157137,-3.703177 1.234401,-5.66049 0,0 10.058802,-4.917697 10.058802,-4.917697 z"
       inkscape:connector-curvature="0" />
    <path
       style="fill:#a02c2c;stroke-width:0.26458332"
       id="path138"
       d="m 85.20676,84.563888 c 0.900337,2.905869 2.024126,5.73545 3.04556,8.600435 1.58169,4.411784 3.229464,8.802177 4.605774,13.283367 1.431105,4.56338 2.761221,9.16172 4.518533,13.6125 0.953495,2.83479 2.190141,5.54959 3.338403,8.3051 0.61954,1.60875 1.19166,3.21903 1.50964,4.9159 0.24507,1.19499 0.73438,2.29893 1.15772,3.43347 0.12948,0.57034 0.37409,1.10123 0.5936,1.63995 0,0 -9.76592,5.46172 -9.76592,5.46172 v 0 c -0.224316,-0.55064 -0.492683,-1.08897 -0.610087,-1.67608 -0.433372,-1.20489 -0.962184,-2.36699 -1.215131,-3.63317 -0.253216,-1.64202 -0.789569,-3.18709 -1.330817,-4.75325 -1.044368,-2.81263 -2.209006,-5.57655 -3.096866,-8.44743 -1.707972,-4.50154 -2.978499,-9.14657 -4.502594,-13.71246 -1.341993,-4.46342 -2.996557,-8.82499 -4.655696,-13.1789 -1.097962,-2.807555 -2.183299,-5.619401 -3.382039,-8.384204 0,0 9.78992,-5.466948 9.78992,-5.466948 z"
       inkscape:connector-curvature="0" />
    <path
       style="fill:#a02c2c;stroke-width:0.26458332"
       id="path140"
       d="m 86.478728,128.69686 c -1.64978,-0.10433 -3.254399,-0.0679 -4.870199,0.26496 -1.436586,0.30904 -2.904315,0.39194 -4.368456,0.44287 -1.500759,0.0374 -3.002158,0.032 -4.503258,0.0306 -1.253612,-0.0307 -2.509576,0.10061 -3.742399,-0.14978 0,0 9.121026,-6.43912 9.121026,-6.43912 v 0 c 1.210614,0.0717 2.424136,0.0248 3.636383,0.0385 1.492046,-0.003 2.985035,-0.002 4.475583,-0.0779 1.439723,-0.0924 2.868319,-0.26739 4.285737,-0.54074 1.674569,-0.21174 3.360751,-0.096 5.044353,-0.16554 0,0 -9.07877,6.59611 -9.07877,6.59611 z"
       inkscape:connector-curvature="0" />
    <path
       style="fill:#a02c2c;stroke-width:0.26458332"
       id="path142"
       d="m 107.8471,83.896437 c 0.17465,2.008344 0.77171,3.934344 1.28271,5.873866 0.64311,2.341735 1.30714,4.676394 2.04484,6.990017 0.75739,2.093933 1.29915,4.25667 2.02125,6.36133 0.58084,1.68446 1.08758,3.39709 1.55728,5.11615 0.46085,1.52004 0.9925,3.01733 1.45247,4.53732 0.5277,1.46446 1.0279,2.95221 1.6806,4.36627 0.57577,1.53506 1.13811,3.07941 1.53367,4.67221 0.42138,1.16291 1.15834,2.1869 1.7186,3.29415 0.81773,1.34139 1.26782,2.81423 1.53619,4.34953 0.06,1.38017 0.40162,2.70975 0.65372,4.06054 0.15058,1.42897 0.33944,2.83972 0.60837,4.25169 0,0 -9.83256,5.24395 -9.83256,5.24395 v 0 c -0.26606,-1.41372 -0.5525,-2.8089 -0.6361,-4.24881 -0.23491,-1.36412 -0.63013,-2.69647 -0.64164,-4.09152 -0.20525,-1.43502 -0.58429,-2.8047 -1.38722,-4.0332 -0.60633,-1.1818 -1.41794,-2.27187 -1.81903,-3.54404 -0.34079,-1.53494 -0.89011,-3.00656 -1.44435,-4.47467 -0.65526,-1.47028 -1.17291,-3.00377 -1.74331,-4.50898 -0.43869,-1.53777 -0.99346,-3.03965 -1.46288,-4.56839 -0.43034,-1.70641 -0.94021,-3.39493 -1.46209,-5.07457 -0.72931,-2.11708 -1.2425,-4.30101 -2.00837,-6.40675 -0.70593,-2.341311 -1.41902,-4.679071 -2.07283,-7.035636 -0.491392,-1.949564 -1.169305,-3.848039 -1.473623,-5.840513 0,0 9.894303,-5.289944 9.894303,-5.289944 z"
       inkscape:connector-curvature="0" />
    <path
       style="fill:#a02c2c;stroke-width:0.26458332"
       id="path144"
       d="m 139.51678,83.337804 c -0.59413,1.75814 -0.96508,3.575359 -1.4492,5.363797 -0.39461,1.761437 -0.83858,3.514934 -1.19011,5.286269 -0.3303,1.591982 -0.81482,3.142739 -1.27467,4.699841 -0.28177,1.439379 -0.83721,2.788399 -1.39241,4.136789 -0.49051,1.32985 -0.85172,2.70496 -1.3738,4.02251 -0.45887,1.17914 -0.70981,2.41915 -1.08823,3.62539 -0.60217,1.43182 -0.88392,2.93526 -1.17705,4.45027 -0.3294,1.34095 -0.60643,2.68204 -1.11523,3.96836 -0.63231,1.30329 -1.28136,2.57582 -1.66026,3.97881 -0.40285,1.25769 -0.72947,2.52416 -1.0021,3.81581 -0.42481,1.17601 -0.5719,2.42167 -0.92373,3.61566 -0.27409,1.18084 -0.70795,2.31069 -1.04791,3.4713 -0.17199,0.63235 -0.23846,1.28342 -0.30764,1.93256 0,0 -9.98447,4.98087 -9.98447,4.98087 v 0 c 0.0453,-0.69637 0.0876,-1.39419 0.21281,-2.08214 0.2514,-1.21662 0.79185,-2.30836 1.01431,-3.52887 0.39447,-1.19819 0.56485,-2.39011 0.93853,-3.59466 0.46051,-1.21852 0.4079,-2.60574 1.05746,-3.77805 0.29251,-1.48659 0.81793,-2.84492 1.54116,-4.17393 0.64307,-1.19877 0.91075,-2.47644 1.235,-3.78846 0.44293,-1.4731 0.39255,-3.07815 1.12066,-4.47224 0.32821,-1.25683 0.76984,-2.46564 1.0487,-3.73705 0.541,-1.30889 1.01855,-2.6337 1.3914,-4.00427 0.47688,-1.36013 1.22755,-2.61645 1.45743,-4.05572 0.40981,-1.55029 0.94924,-3.0592 1.32919,-4.619008 0.3224,-1.810991 0.8597,-3.568763 1.16465,-5.383112 0.50765,-1.73772 0.83815,-3.506703 1.38014,-5.235421 0,0 10.09537,-4.895305 10.09537,-4.895305 z"
       inkscape:connector-curvature="0" />
    <path
       style="fill:#a02c2c;stroke-width:0.26458332"
       id="path148"
       d="m 159.25017,84.008237 c 0.36325,2.575763 0.77393,5.143169 1.03953,7.732932 0.27771,3.139696 0.27797,6.295162 0.30334,9.444541 0.0179,3.11678 0.0146,6.23363 0.0134,9.35045 0.004,2.63005 0.031,5.26009 0.0344,7.89012 0.0859,1.95944 0.0167,3.89317 -0.26433,5.83229 -0.27078,1.497 -0.29988,3.01966 -0.45531,4.52851 -0.29079,1.28777 -0.52099,2.57883 -0.63812,3.89411 -0.12278,1.35682 -0.58679,2.64234 -0.99634,3.93086 0,0 -10.07891,4.77937 -10.07891,4.77937 v 0 c 0.33582,-1.25143 0.81303,-2.45113 1.098,-3.71813 0.0781,-1.3441 0.19846,-2.69072 0.58253,-3.98811 0.37437,-1.46992 0.15515,-3.04265 0.50272,-4.52885 0.3084,-1.90329 0.53937,-3.78498 0.42095,-5.7223 0.005,-2.64361 0.0338,-5.28723 0.0435,-7.93083 0.005,-3.11789 0.0161,-6.23577 0.0111,-9.35366 -0.0155,-3.11442 -0.0416,-6.23209 -0.29035,-9.338465 -0.24024,-2.547387 -0.59985,-5.070118 -1.21707,-7.555643 0,0 9.89091,-5.247195 9.89091,-5.247195 z"
       inkscape:connector-curvature="0" />
    <path
       style="fill:#808000;stroke-width:0.26458332"
       id="path152"
       d="m 162.98556,86.570991 c 1.88789,0.06261 3.77726,0.04626 5.66586,0.03958 1.68201,-0.0076 3.36403,-0.01233 5.04605,-0.01479 1.57016,-0.140457 2.83088,0.622699 4.15565,1.323112 1.20087,0.788075 2.00456,2.039546 2.6014,3.322688 0.52603,1.268428 0.94426,2.522437 1.15499,3.882474 0.32758,1.296356 0.58327,2.605977 1.018,3.871169 0.47132,1.319706 0.60488,2.713076 0.68997,4.101306 0.0672,1.50276 0.0604,3.00754 0.0596,4.51143 -0.13346,1.50258 -0.33947,3.01841 -0.75596,4.47128 -0.39844,1.11365 -0.98598,2.15201 -1.59023,3.16572 -0.64978,0.88149 -1.30625,1.76895 -2.21258,2.39907 -3.85053,2.91455 -8.02503,5.54631 -12.48798,7.3866 -1.37537,0.44718 -2.70998,0.96796 -4.04001,1.52776 -1.33374,0.48078 -2.75732,0.54175 -4.15951,0.59307 -1.46571,0.38081 -2.96511,0.56897 -4.47203,0.68017 -1.01965,0.0514 -0.50998,0.0302 -1.52904,0.0635 0,0 8.98491,-6.59025 8.98491,-6.59025 v 0 c 0.99962,-0.0581 0.50035,-0.023 1.49779,-0.10526 1.50988,-0.1681 2.99168,-0.49599 4.50097,-0.6567 1.35481,-0.11324 2.69939,-0.30925 3.94123,-0.89973 1.32414,-0.55266 2.71719,-0.93822 4.00824,-1.57442 6.04571,-3.33512 -12.95711,8.01179 -6.64369,3.73353 0.94573,-0.8217 -0.13722,0.0517 0.89323,-0.58078 0.58814,-0.36101 0.99751,-1.03987 1.43037,-1.5537 0.80509,-0.81029 1.12638,-1.89856 1.7795,-2.82107 0.46004,-1.36538 0.71014,-2.75233 0.92576,-4.18082 0.002,-1.48395 0.01,-2.96845 -0.0401,-4.45179 -0.0617,-1.28823 -0.14554,-2.58781 -0.56679,-3.81821 -0.45637,-1.33367 -0.72099,-2.70587 -1.08003,-4.06909 -0.17939,-1.260688 -0.57476,-2.410234 -1.04196,-3.589474 -0.47676,-1.078359 -1.1321,-2.124006 -2.18715,-2.707362 -1.22704,-0.628944 -2.44288,-1.008838 -3.84509,-0.887688 -1.66844,-0.0024 -3.33689,-0.0071 -5.00532,-0.01479 -1.92493,-0.0069 -3.85052,-0.02138 -5.77482,0.03958 0,0 9.07878,-6.596113 9.07878,-6.596113 z"
       inkscape:connector-curvature="0" />
    <path
       style="fill:#808000;stroke-width:2.85714293"
       d="m 606.84159,418.8054 c 0.004,-22 0.45296,-30.62232 0.99667,-19.16071 0.5437,11.4616 0.54006,29.4616 -0.008,40 -0.54816,10.53839 -0.99302,1.16071 -0.98856,-20.83929 z"
       id="path154"
       inkscape:connector-curvature="0"
       transform="scale(0.26458333)" />
    <path
       style="fill:#808000;stroke-width:2.85714293"
       d="m 563.76528,527.70278 c 0.78197,-2.03777 2.97154,-16.01755 4.86572,-31.06617 3.56716,-28.33984 2.68763,-145.1289 -1.1582,-153.79404 -1.53288,-3.45375 2.00286,-6.67439 14.83746,-13.51516 17.73917,-9.45488 20.54688,-9.29777 20.54688,1.14972 0,4.34539 -3.47769,8.59589 -10.71428,13.09524 l -10.71429,6.6616 12.14286,0.87857 12.14286,0.87856 v 53.8781 53.87809 l -14.28572,10.48668 c -7.85714,5.76768 -14.28571,11.18724 -14.28571,12.04349 0,0.85625 5.9326,0.88812 13.18355,0.0708 l 13.18356,-1.48598 -1.85801,14.00634 c -2.67215,20.14363 -2.90514,20.44991 -21.96511,28.8739 -10.81563,4.78021 -16.80821,6.27076 -15.92157,3.96023 z"
       id="path156"
       inkscape:connector-curvature="0"
       transform="scale(0.26458333)" />
    <path
       style="fill:#808000;stroke-width:2.85714293"
       d="m 429.97371,522.37683 c -1.0951,-8.25 -5.54266,-23.35714 -9.88346,-33.57143 -11.26714,-26.51251 -20.97604,-55.10256 -35.75027,-105.27475 -7.10128,-24.1154 -12.91141,-44.34689 -12.91141,-44.95887 0,-0.61198 7.74214,-5.02091 17.20476,-9.79763 12.43202,-6.27566 17.53812,-7.67411 18.40649,-5.04113 0.66095,2.0041 3.94192,13.70557 7.29103,26.00327 8.86437,32.54936 34.16264,108.64136 37.112,111.62524 1.47358,1.49083 3.29475,-0.89065 4.36983,-5.71429 1.0138,-4.54873 7.31959,-25.62755 14.01285,-46.84184 6.69327,-21.21429 13.7819,-46.40436 15.75252,-55.97795 3.54646,-17.22929 3.74341,-17.48523 19.34277,-25.13587 8.66791,-4.25114 16.37321,-7.11597 17.12289,-6.36628 2.04456,2.04456 -6.83862,38.93067 -17.58398,73.01493 -21.1889,67.21118 -30.07862,96.31513 -31.90855,104.46517 -3.52449,15.69713 -9.11885,23.06449 -23.42744,30.8522 -7.80052,4.24558 -14.8524,7.71923 -15.67085,7.71923 -0.81846,0 -2.38409,-6.75 -3.47918,-15 z"
       id="path158"
       inkscape:connector-curvature="0"
       transform="scale(0.26458333)" />
    <path
       style="fill:#808000;stroke-width:2.85714293"
       d="M 346.38096,510.23337 C 337.59155,481.98223 334.17946,476.32861 330,483.09111 c -0.9712,1.57143 -7.79707,2.98531 -15.16862,3.14195 -24.61049,0.52295 -27.37073,2.33956 -29.86243,19.65343 -1.21936,8.47278 -2.57885,15.7669 -3.0211,16.20916 -3.14495,3.14495 -33.37642,14.70467 -33.37642,12.76226 0,-1.34577 1.79107,-13.22241 3.98016,-26.39254 4.2403,-25.51072 11.05861,-72.16264 16.02713,-109.65997 1.66576,-12.57143 5.96043,-35.71429 9.54371,-51.42857 l 6.51505,-28.57143 16.93099,-9.0836 c 9.31205,-4.99598 17.36234,-8.65226 17.88953,-8.12506 0.5272,0.52719 -0.31725,5.5791 -1.87656,11.22646 -2.20527,7.9868 -2.00719,10.26791 0.89159,10.26791 2.26732,0 10.10762,18.74096 20.02109,47.85715 8.9619,26.32143 20.19927,58.78571 24.97191,72.14285 18.20378,50.9467 27.96254,78.53182 27.96254,79.04179 0,0.91375 -32.35962,18.1011 -34.0788,18.10047 -0.89952,-3.3e-4 -5.83548,-13.50033 -10.96881,-30 z m -17.80953,-47.74678 c 0,-8.14002 -23.6847,-76.36411 -26.01139,-74.92614 -1.40802,0.8702 -2.5618,6.9706 -2.56395,13.55643 -0.002,6.58583 -1.92896,22.90281 -4.2818,36.25995 -2.35285,13.35714 -4.27966,25.25 -4.28181,26.42857 -0.002,1.17857 8.35323,2.14286 18.56752,2.14286 12.63831,0 18.57143,-1.10592 18.57143,-3.46167 z"
       id="path160"
       inkscape:connector-curvature="0"
       transform="scale(0.26458333)" />
    <path
       style="fill:#808000;stroke-width:2.85714293"
       d="M 112.85714,536.09863 C 105,534.03102 92.464286,531.46543 85,530.39731 c -7.464286,-1.06812 -13.571429,-2.90148 -13.571429,-4.07412 0,-1.17264 5.960387,-6.33334 13.245305,-11.46822 12.173681,-8.58081 14.427487,-9.17926 27.857144,-7.39682 8.03651,1.06663 21.63196,3.73468 30.21212,5.929 8.58015,2.19432 21.75873,3.98968 29.28571,3.98968 h 13.68544 v -11.00222 c 0,-13.96608 -4.88375,-28.63267 -12.2445,-36.77201 -6.7249,-7.43622 -16.19782,-10.83452 -53.86195,-19.32235 -44.714719,-10.07672 -51.433949,-17.35529 -45.539456,-49.33036 5.25339,-28.49737 16.081552,-48.62111 33.074476,-61.46769 19.63829,-14.84647 42.24623,-25.57446 51.55066,-24.46198 7.56527,0.90454 7.41057,1.1812 -6.1108,10.92804 -7.62991,5.5 -17.11587,10.6551 -21.07991,11.45578 -5.63078,1.13734 -8.64017,5.06687 -13.75755,17.96399 -3.60261,9.07951 -7.88543,23.7311 -9.51737,32.55909 -4.94672,26.75932 0.18509,30.62219 58.45241,43.99884 15.45988,3.54918 31.37141,9.01937 35.35895,12.15597 15.76548,12.40113 23.63851,49.63158 13.54332,64.04449 -10.00832,14.28888 -53.17786,32.28921 -76.55141,31.91952 -6.53857,-0.10342 -18.31687,-1.87971 -26.17402,-3.94731 z"
       id="path162"
       inkscape:connector-curvature="0"
       transform="scale(0.26458333)" />
  </g>
</svg>
